<svg xmlns="http://www.w3.org/2000/svg" viewBox="0 0 100 125"><path d="M72.425 35.25c-2.808-9.55-8.278-19.454-16.258-29.44l-.248-.31-.3.262c-8.297 7.282-14.676 15.833-18.45 24.73-3.573 8.427-4.763 16.96-3.44 24.678 1.884 10.98 8.634 19.357 19.018 23.63 1.007 8.324 2.4 14.16 3.597 15.613.23.28.472.427.73.438l1.253.008s-.9-1.55-1.443-3.127c-.543-1.58-1.434-4.386-2.624-12.88 9.43-3.265 16.13-10.214 18.89-19.602 2.07-7.045 1.82-15.343-.727-23.997zm0 23.783c-2.672 9.1-9.152 15.847-18.267 19.05a181.79 181.79 0 0 1-.83-7.263c-.35-3.707-.74-9-.883-15.245 2.726-.19 8.325-3.25 10.59-4.938l-.192-.27c-2.52 1.745-7.837 4.293-10.412 4.49a201.98 201.98 0 0 1 .25-14.993c2.505-.356 9.305-3.257 11.015-4.948l-.193-.27c-2.645 1.833-8.38 4.565-10.78 4.504.22-3.73.563-7.572 1.064-11.448.27-1.815.57-3.614.896-5.344l.067-1.01-.73.92a136.037 136.037 0 0 0-.797 5.356 165.905 165.905 0 0 0-1.27 11.43c-2.42-.58-6.973-3.588-8.835-5.696l-.252.214c1.91 2.344 6.593 5.672 9.033 6.215-.37 5.08-.53 10.134-.527 15.003-2.4-.533-7.03-3.582-8.912-5.71l-.25.213c1.944 2.386 6.764 5.794 9.164 6.243.04 8.298.547 16.032 1.28 22.4-9.914-4.216-16.356-12.318-18.17-22.896-2.717-15.83 5.456-34.362 21.342-48.446 15.067 18.982 20.963 37.595 16.6 52.44z"/><text y="115" font-size="5" font-weight="bold" font-family="'Helvetica Neue', Helvetica, Arial-Unicode, Arial, Sans-serif">Created by Demetria Rose</text><text y="120" font-size="5" font-weight="bold" font-family="'Helvetica Neue', Helvetica, Arial-Unicode, Arial, Sans-serif">from the Noun Project</text></svg>