<svg xmlns="http://www.w3.org/2000/svg" viewBox="0 0 100 125"><title>leaf</title><path d="M77.86 44.65C74.47 27.7 60.554 12.917 45.118 5.323l-.038-.02a2.99 2.99 0 0 0-1.844-.257c-1.608.286-2.675 1.8-2.384 3.382 1.67 9.092-3.83 18.7-8.433 26.18-5.063 8.224-10.98 17.15-8.574 27.213 1.434 5.996 5.604 11 10.824 14.264l.035.02.778.46.068.04c-.013-.01-5.454 5.013-6.02 5.444-2.156 1.64-4.84 2.724-6.86 4.46-2.316 1.987-2.24 5.648.35 7.42 3.072 2.1 5.84.017 7.69-2.436 3.172-4.205 6.432-8.355 9.373-12.72.54-.353 3.964 1.14 4.622 1.33 2.506.72 5.134.975 7.743.944 6.097-.07 12.104-2.032 16.79-5.924 8.96-7.44 10.787-19.666 8.624-30.475zm-4.7 14.26c-.587 3.244-1.75 6.368-3.687 9.086C63.53 76.336 52.47 78.412 43 75.452c-.2-.062-.397-.13-.594-.196.467-.736.934-1.484 1.4-2.252 1.16-1.886 2.222-3.917 3.254-5.994l.005-.01 17.804-5.397c.575-.175.962-.734.89-1.344a1.27 1.27 0 0 0-1.414-1.1L49.7 60.836l.112-.29.57-1.67c.938-2.777.993-6.755 3.488-8.617 3.465-2.587 6.925-5.178 10.367-7.792l.822-.642.415-.332.218-.18.127-.105.092-.08.092-.086.052-.054.025-.026a1.168 1.168 0 0 0 .157-.235c-.057.033.198-.11.055-.824-.296-.658-.745-.675-.59-.64l-.312-.054a1.087 1.087 0 0 0-.874.237c.004-.007-.003-.004-.012 0l-.083.04-.21.102-.45.216-.923.43-1.868.856-3.76 1.694-3.873 1.723c.014-.197.03-.394.036-.59.034-.53.068-1.05.1-1.57.04-.516.02-1.03.034-1.533a63.35 63.35 0 0 0-2.032-16.484c-.252-.974-.728-2.123-1.74-2.253-.898-.113-1.68.74-1.823 1.618-.143.88.166 1.76.446 2.61A44.628 44.628 0 0 1 50.38 44.64c.042-.424-3.8-2.725-4.338-3.073-1.096-.71-3.72-2.783-4.85-1.146-.628.91.172 2.09.93 2.893l6.38 6.747c.264.277.534.567.66.927.517 1.493-3.376 9.01-2.926 9.36a7843.107 7843.107 0 0 0-9.567-7.476c-1.138-.885-3.14-.826-2.654 1.108.16.64.613 1.165 1.05 1.665l8.597 9.81a52.495 52.495 0 0 1-5.413 7.968c-5.042-2.925-9.254-7.72-10.14-13.412-.586-3.77.312-7.644 1.855-11.143 1.542-3.5 3.71-6.69 5.8-9.9C40.945 31 45.822 22.475 46.91 13.083c-.036.305 4.37 2.92 4.928 3.33a73.84 73.84 0 0 1 4.552 3.632c2.92 2.53 5.635 5.303 8.016 8.336 4.745 6.045 8.09 13.155 8.978 20.786.092.787.16 1.578.2 2.37.127 2.444.012 4.943-.428 7.375zm-8.51-17.756c.046.027.09.055.142.075h.003c.086.02 0 .02-.144-.077zM35.246 55.046c-.03-.003-.057-.005-.086-.01-.03-.004-.056-.012-.083-.018.055.013.112.02.168.028zm-.218-.04c-.005 0-.01 0-.015-.002a1.315 1.315 0 1 1 .014.003z" fill-rule="evenodd"/><text y="115" font-size="5" font-weight="bold" font-family="'Helvetica Neue', Helvetica, Arial-Unicode, Arial, Sans-serif">Created by Marek Polakovic</text><text y="120" font-size="5" font-weight="bold" font-family="'Helvetica Neue', Helvetica, Arial-Unicode, Arial, Sans-serif">from the Noun Project</text></svg>