<svg xmlns="http://www.w3.org/2000/svg" viewBox="0 0 91.333 100"><path d="M81.502 59.48c-14.446 17.34-29.44 7.49-34.332 3.455 3.772-4.12 5.505-6.36 12.054-11.758 6.77 2.767 18.887-2.487 18.887-2.487-8.15 2.137-14.38.926-16.592.34.475-.37 8.516-6.19 10.95-9.557 6.73.208 12.29-5.573 12.29-5.573-.18-.156-3.586 2.454-10.024 2.767C81.4 26.875 81.1 17.865 81.1 17.865s-2.462 8.223-8.725 17.24c-1.283-6.4.352-10.756.17-10.9 0 0-4.363 7.188-2.352 13.796-3.424 3.916-8.82 7.295-10.813 8.81-.156-.41-2.24-7.24-.215-17.323 0 0-5.488 12.682-2.05 19.257-4.206 3.236-5.333 4.03-12.357 11.88-15.905-11.906-2.25-33.202 9.66-38.163 12.255-5.11 17.36-4.08 28.59-22.46 12.297 18.217 10.28 45.34-1.505 59.48zm-67.88-1.85c7.237 3.307 12.253 7.8 15.7 12.096.04-.124.095-.228.134-.37C36.006 45.78 0 49.06 0 49.06s4.974 7.656 7.747 16.003C10.954 74.74 24.06 82.78 28.77 71.29a51.455 51.455 0 0 0-15.147-13.66z"/><path d="M47.17 62.936c-.042-.053-2.487-2.24-2.448-2.292-6.172 6.797-8.578 12.604-9.164 20.006-.934-2.545-2.802-6.62-6.237-10.924a14.797 14.797 0 0 1-.55 1.562c3.66 4.928 5.075 11.64 5.908 13.84 0 6.147.674 9.22 1.214 14.35 0 0 3.31 1.953 4.23-1.692-1.87-3.087-3.7-24.33 7.05-34.85z"/></svg>