<svg xmlns="http://www.w3.org/2000/svg" viewBox="0 0 100 125"><path d="M-192 0H-7v99h-185zM0-36h100v30H0z"/><text transform="translate(66 -19.5)" font-family="'Helvetica'" font-size="2.4">http://thenounproject.com</text><text transform="translate(7.166 -24.5)"><tspan x="0" y="0" font-family="'Helvetica-Bold'" font-size="6.158">The Noun Project</tspan><tspan x="1.12" y="4.8" font-family="'Helvetica-Bold'" font-size="4">Icon Template</tspan></text><text transform="translate(-178.5 10.5)" font-family="'Helvetica-Bold'" font-size="6.158">Reminders</text><path stroke="#FFF" stroke-miterlimit="10" d="M8-14.5h10m-197 31h17"/><path d="M-170.802 31.318h8.72v8.642h-8.72z"/><path d="M-164.455 42.312h4.747V37.61h-4.747v4.702zm5.19.437h-5.63v-5.58h5.63v5.58zm-6.956 1.31h8.277v-8.2h-8.28v8.202zm8.72.44h-9.164v-9.08h9.163v9.08z"/><path d="M-166.15 44.133l-.142-.142 8.28-8.202.14.142z"/><path fill="none" d="M-179 58h35v32.5h-35z"/><text transform="translate(-179 60.157)"><tspan x="0" y="0" font-family="'Helvetica-Bold'" font-size="3">Strokes</tspan><tspan x="0" y="5" font-family="'Helvetica'" font-size="2.4">Try to keep strokes at 4px</tspan><tspan x="0" y="10" font-family="'Helvetica'" font-size="2.4">Minimum stroke weight is 2px</tspan><tspan x="0" y="14.5" font-family="'Helvetica'" font-size="2.4">For thicker strokes use even </tspan><tspan x="0" y="17.5" font-family="'Helvetica'" font-size="2.4">numbers: 6px, 8px etc.</tspan><tspan x="0" y="22" font-family="'Helvetica-Bold'" font-size="2.4">Remember to expand strokes </tspan><tspan x="0" y="25" font-family="'Helvetica-Bold'" font-size="2.4">before saving as an SVG</tspan></text><path fill="none" d="M-136.5 58h35v32.5h-35z"/><text transform="translate(-136.5 60.157)"><tspan x="0" y="0" font-family="'Helvetica-Bold'" font-size="3">Size</tspan><tspan x="0" y="5" font-family="'Helvetica'" font-size="2.4">Cannot be wider or taller than </tspan><tspan x="0" y="8.5" font-family="'Helvetica'" font-size="2.4">100px (artboard size)</tspan><tspan x="0" y="13.5" font-family="'Helvetica'" font-size="2.4">Scale your icon to fill as much of </tspan><tspan x="0" y="16.5" font-family="'Helvetica'" font-size="2.4">the artboard as possible</tspan></text><path fill="none" d="M-94 58h35v32.5h-35z"/><text transform="translate(-94 60.157)"><tspan x="0" y="0" font-family="'Helvetica-Bold'" font-size="3">Ungroup</tspan><tspan x="0" y="5" font-family="'Helvetica'" font-size="2.4">If your design has more than one </tspan><tspan x="0" y="8" font-family="'Helvetica'" font-size="2.4">shape, make sure to ungroup</tspan></text><path fill="none" d="M-50 58h35v32.5h-35z"/><text transform="translate(-50 60.157)"><tspan x="0" y="0" font-family="'Helvetica-Bold'" font-size="3">Save as</tspan><tspan x="0" y="5" font-family="'Helvetica'" font-size="2.4">Save as .SVG and make sure </tspan><tspan x="0" y="8" font-family="'Helvetica'" font-size="2.4">“Use Artboards” is checked</tspan></text><text transform="matrix(1.0074 0 0 1 -125.542 30.593)" font-family="'Helvetica'" font-size="2.573">100px</text><text transform="matrix(1.0074 0 0 1 -41 39)" font-family="'Helvetica-Bold'" font-size="5.146">.SVG</text><path d="M-126.514 34.815h10.26V45h-10.26zm.037-3.05h.522v2.338h-.522zm9.665 0h.523v2.338h-.52z"/><path d="M-127 32.337h11.233v.572H-127zm43.195 1.507H-73.5V44h-10.305zm6.995-5.137h3.31v3.26h-3.31z"/><path stroke="#FFF" stroke-miterlimit="10" d="M-178.5 22.5h30v30h-30zm42 0h30v30h-30zm43 0h30v30h-30zm44 0h30v30h-30z"/><path d="M83.546.12c-2.99-2.248-51.42 12.806-62.508 27.555-10.65 14.17-8.32 34.057 4.962 45.427L15.548 94.068c-1.058 2.122-.987 4.325.156 4.895 1.144.57 2.85-.743 3.794-2.918l9.08-20.945.024.018c1.208-2.83 3.092-6.907 5.57-11.62-.004-.025-.02-.046-.022-.07-.006-.043-.318-4.297-5.17-8.01-.355-.27-.704-.678-.433-1.03a.81.81 0 0 1 1.132-.152c3.425 2.62 4.935 5.438 5.59 7.208 3.683-6.79 8.5-14.638 14.245-21.913.166-1.33 1.587-14.11-4.182-18.444-.355-.27-.447-.778-.18-1.136.27-.358.715-.194 1.07.073 5.13 3.86 5.348 12.815 5.105 17.265 3.892-4.68 8.172-9.04 12.786-12.614a.81.81 0 0 1 .99 1.28c-8.386 6.492-15.62 15.52-21.386 24.31 4.34.102 17.68.676 22.03 3.947.355.27.764.774.496 1.13-.16.213-.65.31-1.142-.107-4.126-3.518-19.925-3.413-22.413-3.377C36.38 61.74 31.965 71.116 29.922 76c14.562 9.21 33.992 5.838 44.526-8.174C85.534 53.074 86.537 2.368 83.545.12z"/><text y="115" font-size="5" font-weight="bold" font-family="'Helvetica Neue', Helvetica, Arial-Unicode, Arial, Sans-serif">Created by Joyce Lin</text><text y="120" font-size="5" font-weight="bold" font-family="'Helvetica Neue', Helvetica, Arial-Unicode, Arial, Sans-serif">from the Noun Project</text></svg>