<svg xmlns="http://www.w3.org/2000/svg" viewBox="0 0 30 37.5"><title>nature_010-leaf-green-tree-plant-garden</title><path d="M6.306 22.737c-.786-1.11-1.57-3.375-1.76-5.606-.296-3.495.72-6.785 3.353-9.42a12.217 12.217 0 0 1 1.98-1.59C12.41 4.47 15.78 3.4 19.663 2.8a46.536 46.536 0 0 1 6.75-.54c.28-.002.48 0 .588.004a.5.5 0 0 1 .486.487c.002.106.005.306.004.59a46.536 46.536 0 0 1-.54 6.75c-.605 3.88-1.674 7.25-3.326 9.784a12.217 12.217 0 0 1-1.59 1.98c-2.633 2.635-5.923 3.65-9.42 3.353-2.232-.19-4.496-.973-5.607-1.76l-2.65 2.65a.502.502 0 0 1-.707 0 .506.506 0 0 1 0-.706l2.65-2.65zm1.425-.01c.976.628 2.99 1.31 4.976 1.48 3.22.273 6.22-.652 8.63-3.063a11.222 11.222 0 0 0 1.457-1.818c1.563-2.397 2.592-5.64 3.176-9.395a45.59 45.59 0 0 0 .49-5.06c.025-.566.03-1.604.03-1.604s-1.04.004-1.608.028a45.83 45.83 0 0 0-5.06.492c-3.754.584-7 1.613-9.395 3.175-.684.446-1.292.93-1.818 1.457-2.41 2.41-3.337 5.41-3.064 8.63.17 1.986.852 4 1.48 4.973l4.265-4.266v-5.45c0-.276.23-.5.5-.5.276 0 .5.215.5.502v4.448l3.95-3.95v-2.62c0-.277.23-.5.5-.5.276 0 .5.22.5.492v1.628l3.39-3.39a.505.505 0 0 1 .706 0c.195.197.2.508 0 .708l-3.39 3.39h1.63a.5.5 0 0 1-.008 1h-2.62l-3.95 3.95h4.447c.277 0 .502.23.502.5a.5.5 0 0 1-.5.5h-5.45L7.73 22.726z" fill-rule="evenodd"/><text y="45" font-size="5" font-weight="bold" font-family="'Helvetica Neue', Helvetica, Arial-Unicode, Arial, Sans-serif">Created by Pham Thi Dieu Linh</text><text y="50" font-size="5" font-weight="bold" font-family="'Helvetica Neue', Helvetica, Arial-Unicode, Arial, Sans-serif">from the Noun Project</text></svg>