<svg xmlns="http://www.w3.org/2000/svg" viewBox="0 0 90 112.5"><path fill-rule="evenodd" clip-rule="evenodd" d="M42.554 21.06c-1.71.54-2.63 1.08-2.767 1.62 0 .043.022.1.067.167.405.517 1.316.99 2.733 1.416h-.034c2.317.698 5.095 1.047 8.335 1.047 3.26 0 6.038-.35 8.33-1.047 1.397-.427 2.308-.888 2.734-1.382l.067-.2c-.138-.54-1.07-1.08-2.803-1.62-2.293-.698-5.07-1.046-8.33-1.046-3.24 0-6.017.35-8.334 1.046zm-.608-2.093c2.45-.764 5.43-1.147 8.942-1.147 3.508 0 6.5.383 8.973 1.147 3.06.945 4.51 2.183 4.355 3.712v.065a1.9 1.9 0 0 1-.102.608c.067.156.09.337.067.54-1.508 9.603-1.147 17.645 1.078 24.123.226.404.34.83.34 1.28-.137.114-.26.26-.373.44-.224.27-.596.552-1.113.844-.36.18-.787.36-1.28.54-.023.023-.045.034-.07.034-.27.112-.505.292-.707.54-.067.022-.136.044-.202.067h.032c-3.035.9-6.702 1.35-10.996 1.35-4.3 0-7.966-.45-11-1.35a1.847 1.847 0 0 0-.238-.1 1.945 1.945 0 0 0-.708-.506c-.022-.023-.046-.034-.068-.034a19.718 19.718 0 0 1-1.282-.574c-.472-.27-.82-.54-1.045-.81a1.854 1.854 0 0 0-.338-.474c0-.405.1-.798.303-1.18 2.183-6.522 2.52-14.586 1.012-24.19a.885.885 0 0 1 .136-.675 2.22 2.22 0 0 1-.068-.54c-.16-1.527 1.292-2.764 4.35-3.71zm21.088 35.56h.03c.34.09.677.067 1.014-.067a.3.3 0 0 1 .136-.034c-1.237 5.668-1.26 12.338-.067 20.007a1 1 0 0 0 .033.236v.066c.02.134.034.258.034.37 0 .203-.023.394-.067.574a.52.52 0 0 1-.034.136c-.247 1.215-1.665 2.217-4.25 3.003-2.475.764-5.466 1.144-8.974 1.144-3.514 0-6.493-.38-8.944-1.146-3.036-.924-4.487-2.14-4.353-3.646-.112-.248-.124-.46-.033-.64 1.192-7.737 1.182-14.452-.034-20.144.022.023.057.034.1.034.34.135.676.158 1.014.068h.033a6.2 6.2 0 0 0 .372.134c.247.07.517.147.81.237 3.103.83 6.78 1.25 11.033 1.25 4.25 0 7.916-.42 10.996-1.25.294-.09.586-.167.878-.236v-.033c.09-.02.18-.042.272-.064zm3.272 13.868c1.146-15.34 7.95-27.665 20.41-36.978-.403 21.997-7.253 35.693-20.545 41.093v-1.046a65.44 65.44 0 0 1 .137-3.07zM29.16 49.837v.068h.033c.765 1.777 2.35 5.758 4.758 11.942V74.6c-4.07-12.234-6.67-19.793-7.792-22.67-5.938 1.956-12.022.123-18.252-5.5 8.884-.99 14.384-.384 16.498 1.822-1.642-4.206-3.306-7.885-4.993-11.032-4.07 1.888-8.176.36-12.314-4.59 5.173-.943 8.76-.404 10.763 1.62-4.52-7.78-9.38-13.663-14.576-17.644 6.05 4.07 11.527 9.468 16.43 16.194-.022-2.475 1.61-5.927 4.893-10.358.044 7.107-1.047 11.268-3.273 12.483A126.723 126.723 0 0 1 27.44 46.06c.202-5.22 2.586-10.336 7.152-15.352 1.417 7.242-.416 13.573-5.5 18.994l.067.135z"/><text y="105" font-size="5" font-weight="bold" font-family="'Helvetica Neue', Helvetica, Arial-Unicode, Arial, Sans-serif">Created by Cristiano Zoucas</text><text y="110" font-size="5" font-weight="bold" font-family="'Helvetica Neue', Helvetica, Arial-Unicode, Arial, Sans-serif">from the Noun Project</text></svg>