<svg xmlns="http://www.w3.org/2000/svg" viewBox="0 0 100 125"><path d="M8.778 69.438c.155-.29.317-.58.49-.867a24.71 24.71 0 0 1 2.374-3.412c1.814-2.218 4.13-4.163 6.642-5.777 2.524-1.602 5.26-2.85 8.016-3.91 2.757-1.07 5.565-1.917 8.327-2.75 2.762-.832 5.504-1.583 8.147-2.42 2.65-.81 5.213-1.68 7.64-2.632a65.058 65.058 0 0 0 6.817-3.108 53.62 53.62 0 0 0 5.727-3.523 50.104 50.104 0 0 0 4.48-3.565c.316-.29.623-.57.92-.84.285-.283.56-.555.826-.815.547-.51 1.005-1.02 1.443-1.462a54.85 54.85 0 0 0 1.924-2.158l.67-.787a.25.25 0 0 1 .41.285l-.503.905c-.312.593-.84 1.443-1.528 2.52-.7 1.064-1.58 2.348-2.727 3.72-1.135 1.378-2.48 2.897-4.102 4.412a48.694 48.694 0 0 1-5.58 4.504c-2.083 1.475-4.415 2.822-6.87 4.108a96.933 96.933 0 0 1-7.737 3.5 318.988 318.988 0 0 1-8.044 3.07c-2.67.984-5.28 2.006-7.74 3.087-2.46 1.084-4.717 2.31-6.687 3.656-.565.396-1.103.805-1.615 1.224-.296.174-.59.352-.88.535-2.512 1.614-4.826 3.56-6.64 5.778a24.643 24.643 0 0 0-2.376 3.414c-.69 1.154-1.23 2.325-1.71 3.455a32.96 32.96 0 0 0-1.85 6.313c-.363 1.896-.526 3.54-.644 4.89-.095 1.35-.145 2.403-.15 3.118-.006.36-.012.634-.014.818.012.048-.032.09.026.124.105.035.586.065 1.163.09.29.01.546.02.765.03.345.008.634.016.864.02l.694.018c.15.004.336.005.487 0h.008l.696-.016c.23-.004.52-.01.865-.02l.767-.026c.575-.02 1.06-.045 1.164-.075.06-.03.018-.067.03-.107l.01-.716c0-.63.037-1.54.108-2.693.093-1.147.22-2.537.504-4.074.29-1.532.704-3.223 1.356-4.947.347-.85.722-1.73 1.205-2.574.03-.057.065-.113.098-.17C87.15 102.086 93.77 5 93.77 5c-8.632 26.883-81.7 8.634-84.99 64.438z"/><text y="115" font-size="5" font-weight="bold" font-family="'Helvetica Neue', Helvetica, Arial-Unicode, Arial, Sans-serif">Created by Edward Battistini</text><text y="120" font-size="5" font-weight="bold" font-family="'Helvetica Neue', Helvetica, Arial-Unicode, Arial, Sans-serif">from the Noun Project</text></svg>