<svg xmlns="http://www.w3.org/2000/svg" viewBox="0 0 100 125"><path d="M50.9 6.1L50 5l-.9 1.1c-19 22.7-25.9 41.1-21.2 56.3 3.8 12.2 16.8 14.4 20.9 14.7v16.6c0 .7.5 1.2 1.2 1.2s1.2-.5 1.2-1.2V77.1c4.1-.4 17.1-2.5 20.9-14.7 4.7-15.2-2.2-33.6-21.2-56.3zm18.8 55.6c-3.3 10.8-14.7 12.7-18.5 13V63.9l8.9-8.9c.5-.5.5-1.3 0-1.7-.5-.5-1.3-.5-1.7 0l-7.2 7.2V46.6l6.3-6.3c.5-.5.5-1.3 0-1.7-.5-.5-1.3-.5-1.7 0l-4.6 4.6V26c0-.7-.5-1.2-1.2-1.2s-1.2.5-1.2 1.2v17.1l-4.6-4.6c-.5-.5-1.3-.5-1.7 0-.5.5-.5 1.3 0 1.7l6.3 6.3v13.9l-7.2-7.2c-.5-.5-1.3-.5-1.7 0-.5.5-.5 1.3 0 1.7l8.9 8.9v10.8c-3.8-.3-15.2-2.2-18.5-13-4.4-14 2-31.3 19.7-52.8 17.7 21.5 24.1 38.8 19.7 52.9z"/><text y="115" font-size="5" font-weight="bold" font-family="'Helvetica Neue', Helvetica, Arial-Unicode, Arial, Sans-serif">Created by Oliver Rooker</text><text y="120" font-size="5" font-weight="bold" font-family="'Helvetica Neue', Helvetica, Arial-Unicode, Arial, Sans-serif">from the Noun Project</text></svg>