<svg xmlns="http://www.w3.org/2000/svg" viewBox="0 0 100 125"><path d="M-192 0H-7v99h-185zM0-36h100v30H0z"/><text transform="translate(66 -19.5)" font-family="'Helvetica'" font-size="2.4">http://thenounproject.com</text><text transform="translate(7.166 -24.5)" font-family="'Helvetica-Bold'" font-size="6.158">The Noun Project</text><text transform="translate(8.286 -19.7)" font-family="'Helvetica-Bold'" font-size="4">Icon Template</text><text transform="translate(-178.5 10.5)" font-family="'Helvetica-Bold'" font-size="6.158">Reminders</text><path stroke="#FFF" stroke-miterlimit="10" d="M8-14.5h10m-197 31h17"/><path d="M-170.802 31.318h8.72v8.642h-8.72z"/><path d="M-164.455 42.312h4.747V37.61h-4.747v4.702zm5.19.437h-5.63v-5.58h5.63v5.58zm-6.956 1.31h8.277v-8.2h-8.28v8.202zm8.72.44h-9.164v-9.08h9.163v9.08z"/><path d="M-166.15 44.133l-.142-.142 8.28-8.202.14.142z"/><path fill="none" d="M-179 58h35v32.5h-35z"/><text transform="translate(-179 60.158)" font-family="'Helvetica-Bold'" font-size="3">Strokes</text><text transform="translate(-179 65.158)" font-family="'Helvetica'" font-size="2.4">Try to keep strokes at 4px</text><text transform="translate(-179 70.158)" font-family="'Helvetica'" font-size="2.4">Minimum stroke weight is 2px</text><text transform="translate(-179 74.658)" font-family="'Helvetica'" font-size="2.4">For thicker strokes use even</text><text transform="translate(-179 77.658)" font-family="'Helvetica'" font-size="2.4">numbers: 6px, 8px etc.</text><text transform="translate(-179 82.158)" font-family="'Helvetica-Bold'" font-size="2.4">Remember to expand strokes</text><text transform="translate(-179 85.158)" font-family="'Helvetica-Bold'" font-size="2.4">before saving as an SVG</text><path fill="none" d="M-136.5 58h35v32.5h-35z"/><text transform="translate(-136.5 60.158)" font-family="'Helvetica-Bold'" font-size="3">Size</text><text transform="translate(-136.5 65.158)" font-family="'Helvetica'" font-size="2.4">Cannot be wider or taller than</text><text transform="translate(-136.5 68.658)" font-family="'Helvetica'" font-size="2.4">100px (artboard size)</text><text transform="translate(-136.5 73.658)" font-family="'Helvetica'" font-size="2.4">Scale your icon to fill as much of</text><text transform="translate(-136.5 76.658)" font-family="'Helvetica'" font-size="2.4">the artboard as possible</text><path fill="none" d="M-94 58h35v32.5h-35z"/><text transform="translate(-94 60.158)" font-family="'Helvetica-Bold'" font-size="3">Ungroup</text><text transform="translate(-94 65.158)" font-family="'Helvetica'" font-size="2.4">If your design has more than one</text><text transform="translate(-94 68.158)" font-family="'Helvetica'" font-size="2.4">shape, make sure to ungroup</text><path fill="none" d="M-50 58h35v32.5h-35z"/><text transform="translate(-50 60.158)" font-family="'Helvetica-Bold'" font-size="3">Save as</text><text transform="translate(-50 65.158)" font-family="'Helvetica'" font-size="2.4">Save as .SVG and make sure</text><text transform="translate(-50 68.158)" font-family="'Helvetica'" font-size="2.4">“Use Artboards” is checked</text><text transform="matrix(1.0074 0 0 1 -125.542 30.594)" font-family="'Helvetica'" font-size="2.573">100px</text><text transform="matrix(1.0074 0 0 1 -41 39)" font-family="'Helvetica-Bold'" font-size="5.146">.SVG</text><path d="M-126.514 34.815h10.26V45h-10.26zm.037-3.05h.522v2.338h-.522zm9.665 0h.523v2.338h-.52z"/><path d="M-127 32.337h11.233v.572H-127zm43.195 1.507H-73.5V44h-10.305zm6.995-5.137h3.31v3.26h-3.31z"/><path stroke="#FFF" stroke-miterlimit="10" d="M-178.5 22.5h30v30h-30zm42 0h30v30h-30zm43 0h30v30h-30zm44 0h30v30h-30z"/><path d="M23.832 35.708c-.303 2.948-.15 5.617.382 8.064 1.417 6.535 5.515 11.48 10.74 15.89-.826-2.403-1.092-5.135-1.47-7.646a77.56 77.56 0 0 0-.47-2.788c-.573-3.082-1.3-6.125-2.03-9.168-.28-1.178-.697-2.61-.642-3.575 1.852 2.272 5.567 9.365 8.283 15.66 1.6 3.71 3.583 9.388 4.555 13.68a225.647 225.647 0 0 0 6.585 4.4c-.604-2.164-.85-4.52-1.183-6.71a74.348 74.348 0 0 0-.47-2.788c-.57-3.084-1.3-6.126-2.028-9.17-.282-1.174-.698-2.608-.642-3.572 1.85 2.27 5.567 9.363 8.282 15.662 1.337 3.097 2.943 7.578 4.004 11.476 1.9 1.116 3.813 2.216 5.747 3.278-.502-2.01-.735-4.15-1.038-6.16a77.948 77.948 0 0 0-.47-2.786c-.576-3.08-1.3-6.125-2.03-9.17-.28-1.174-.7-2.608-.644-3.572 3.277 4.02 5.245 8.84 7.016 13.666 1.51 4.124 2.667 9.842 5.937 12.98 3.766 3.616 8.033.203 9.558-3.633 2.483-6.242.782-21.7-3.278-29.643-11.465-22.4-36.54-25.61-52.477-45.745-.92-1.17-3.107-4.54-3.53-4.335-.42.207.847 3.9 1.18 5.322 2.4 10.277 1.192 20.05.132 30.386zm50.52 55.656a156.76 156.76 0 0 1-4.544-2.19 446.586 446.586 0 0 1-5.336-2.73 219.267 219.267 0 0 1-22.36-13.3 206.496 206.496 0 0 1-9.56-6.893c-3.125-2.394-6.045-5.05-8.98-7.674.69 5.955 2.357 12.05 5.743 18.408 2.175 4.083 5.147 7.874 8.562 10.986 4.185 3.81 9.195 6.785 14.85 7.664 3.31.51 11.44.46 14.782.434 11.037-.075 20.724 3.02 25.8 2.67 1.15-.077-16.223-6.112-18.958-7.374z"/><text y="115" font-size="5" font-weight="bold" font-family="'Helvetica Neue', Helvetica, Arial-Unicode, Arial, Sans-serif">Created by iconoci</text><text y="120" font-size="5" font-weight="bold" font-family="'Helvetica Neue', Helvetica, Arial-Unicode, Arial, Sans-serif">from the Noun Project</text></svg>