<svg xmlns="http://www.w3.org/2000/svg" viewBox="0 0 100 125"><path d="M67.34 15.73c-21.02 3.356-42.264 16.78-46.88 38.045-2.086 9.596-1.347 16.462-2.717 25.16 3.46-6.064 7.035-11.34 10.608-15.975-.865-3.127-2.076-9.248-.452-15.49 0 0 .92 7.822 3.313 11.945A110.678 110.678 0 0 1 37 52.962C36.618 48.404 36.19 36.5 41.46 31c0 0-3.18 11.777-1.307 18.86 15.618-14.737 28.69-17.744 28.69-17.744-7.738 4.404-14.346 9.203-20.053 14.2 6.153-.45 18.834-4.706 18.834-4.706-9.613 5.786-19.027 8.014-23.242 8.784a104.22 104.22 0 0 0-10.188 11.52c10.716.67 32.158-7.52 32.158-7.52-10.182 7.26-28.57 10.888-35.42 12.038-.763 1.13-6.126 10.553-9.365 18.193 4.954-1.826 12.638-4.51 20.654-6.746 13.586-3.797 31.583-9.037 40.458-29.44 8.813-20.25 4.678-35.8 9.484-43.27-.728 1.118-5.676 7.504-24.82 10.56zM92.163 5.17c.07-.11.105-.17.105-.17-.038.055-.07.115-.105.17z"/><text y="115" font-size="5" font-weight="bold" font-family="'Helvetica Neue', Helvetica, Arial-Unicode, Arial, Sans-serif">Created by Yi Chen</text><text y="120" font-size="5" font-weight="bold" font-family="'Helvetica Neue', Helvetica, Arial-Unicode, Arial, Sans-serif">from the Noun Project</text></svg>