<svg xmlns="http://www.w3.org/2000/svg" viewBox="0 0 100 125"><path d="M23.177 77.002A3.036 3.036 0 0 0 26.253 80c2.27.02 35.056.012 46.616-17.506 5.212-7.903 5.27-17.923.186-29.782 1.002-.838 4.594-4.4 2.896-11.322a1.805 1.805 0 0 0-.48-.853 1.824 1.824 0 0 0-3.06 1.722c1.3 5.3-1.567 7.56-1.725 7.68-.077.054-.143.12-.208.184-11.868-5.09-21.895-5.036-29.8.182C22.915 42.026 23.155 75.576 23.174 77zm20.85-41.625c5.88-3.878 13.62-3.904 23.018-.104l-7.73 7.73c-5.884 1.895-11.206 1.375-13.883 0a.607.607 0 1 0-.554 1.08c2.396 1.23 7.01 2.028 12.68.676l-8.91 8.91c-3.898 1.244-7.413.903-9.18 0a.607.607 0 1 0-.553 1.08c1.556.8 4.47 1.316 8.053.6l-4.816 4.815a.608.608 0 0 0 .858.86l4.817-4.817c-.718 3.582-.198 6.497.6 8.05a.606.606 0 1 0 1.082-.55c-.91-1.768-1.25-5.28 0-9.18l8.91-8.913c-1.356 5.67-.558 10.286.672 12.68.153.302.52.42.816.265.3-.152.417-.52.263-.816-1.372-2.68-1.895-8 0-13.884l7.733-7.73c3.798 9.396 3.773 17.132-.1 23.01-8.046 12.2-30.295 14.335-38.48 14.704.363-8.182 2.484-30.406 14.702-38.47z"/><text y="115" font-size="5" font-weight="bold" font-family="'Helvetica Neue', Helvetica, Arial-Unicode, Arial, Sans-serif">Created by Berkay Sargın</text><text y="120" font-size="5" font-weight="bold" font-family="'Helvetica Neue', Helvetica, Arial-Unicode, Arial, Sans-serif">from the Noun Project</text></svg>