<svg xmlns="http://www.w3.org/2000/svg" viewBox="0 0 100 125"><path d="M33.96 47.944a61.132 61.132 0 0 1 2.144 6.5c.14 0 .266.01.407.01C46.076 25.704 17.9 9.454 5.415 5c5.88 18.022-.637 46.402 26.45 49.212-.993-5.39-2.842-10.707-5.184-15.792-3.21-6.925-7.397-13.456-12.187-19.53 5.37 5.568 10.24 11.694 14.243 18.447 1.99 3.378 3.77 6.91 5.225 10.607zM92.337 8.8c-16.4 24.435-74.383 32.806-52.593 84.71 4.98-7.04 9.812-14.21 14.462-21.487 3.06-4.803 6.034-9.66 8.873-14.603 2.824-4.946 5.532-9.97 7.93-15.16-1.8 5.43-3.934 10.76-6.203 16.026-2.277 5.267-4.705 10.47-7.225 15.63A555.99 555.99 0 0 1 46.67 95C100.9 76.547 96.466 29.445 92.337 8.8z"/><text y="115" font-size="5" font-weight="bold" font-family="'Helvetica Neue', Helvetica, Arial-Unicode, Arial, Sans-serif">Created by Clockwise</text><text y="120" font-size="5" font-weight="bold" font-family="'Helvetica Neue', Helvetica, Arial-Unicode, Arial, Sans-serif">from the Noun Project</text></svg>