<svg xmlns="http://www.w3.org/2000/svg" viewBox="0 0 100 125"><path d="M70.466 51.196c-11.05-9.167-26.037-11.37-37.293-4.827C21.917 52.91 14.527 56.07 2 53.683c12.302 2.294 20.334 5.655 31.737-1.248 11.402-6.904 27.887-4.26 36.73-1.242z"/><path d="M2 53.686c14.817 3.908 21.693 4.603 27.298 1.802 5.606-2.8 18.574-11.27 41.64-3.43 23.064 7.842 28.055 5.09 28.055 5.09s.616-.05-.622 1.537c-3.044-.115-13.995-.408-27.602-5.466-6.714 9.132-14.97 18.204-32.438 16.614C20.855 68.244 2 53.684 2 53.684z"/><text y="115" font-size="5" font-weight="bold" font-family="'Helvetica Neue', Helvetica, Arial-Unicode, Arial, Sans-serif">Created by Alex WaZa</text><text y="120" font-size="5" font-weight="bold" font-family="'Helvetica Neue', Helvetica, Arial-Unicode, Arial, Sans-serif">from the Noun Project</text></svg>